<?xml version="1.0" encoding="UTF-8"?>
<svg width="258px" height="196px" viewBox="0 0 258 196" version="1.1" xmlns="http://www.w3.org/2000/svg" xmlns:xlink="http://www.w3.org/1999/xlink">
    <!-- Generator: Sketch 57.1 (83088) - https://sketch.com -->
    <title>bip-logo-white</title>
    <desc>Created with Sketch.</desc>
    <g id="bip-logo-white" stroke="none" stroke-width="1" fill="none" fill-rule="evenodd">
        <g id="Group" transform="translate(0.000000, 9.000000)" fill-rule="nonzero">
            <g id="bip-logo">
                <path d="M66.35217,88.7653261 C66.5411268,86.65721 66.7300836,84.7395863 66.7300836,83.0140424 C66.7300836,74.1958306 62.7509689,71.1289025 56.3059684,71.1289025 C52.5126612,71.1289025 47.7729955,73.6211784 44.3607512,76.1134543 L39.4321288,110.044917 C42.4648849,110.621157 44.9307708,110.811649 47.395082,110.811649 C58.9592364,110.811649 64.0768156,103.144329 66.3537447,88.7653261 L66.35217,88.7653261 Z M53.8463811,11.3650794 C53.4691583,13.7158291 53.0901949,16.0662946 52.7094912,18.4164739 C49.6121748,37.537151 47.7777195,48.0142343 47.2045506,49.8477239 L47.7729955,50.0413912 C55.7359488,44.6726797 63.6973274,41.7978316 72.7971705,41.7978316 C92.1337467,41.7978316 104.078964,52.1495074 104.078964,75.1546424 C104.078964,113.303925 81.139612,139.375988 40.5690187,139.375988 C28.6269508,139.375988 15.3558869,138.801336 0,136.30906 L16.8769889,20.7436564 L17.554084,16.1004035 L53.8463811,11.3666668 L53.8463811,11.3650794 Z M154.867395,40.3723132 L141.078274,136.190003 L104.563953,141.017398 L118.160967,45.1616103 L154.86582,40.3723132 L154.867395,40.3723132 Z M166.157562,44.7060159 L199.366714,40.3723132 L198.283362,49.1333773 C198.472319,49.1333773 198.661275,49.3238697 198.850232,49.3238697 C199.040764,49.3238697 199.22972,49.1333773 199.22972,49.1333773 C207.192674,43.3820935 216.672005,40.5056579 225.39236,40.5056579 C243.781003,40.5056579 258,51.8161456 258,76.5468246 C258,115.846999 232.216849,137.70283 205.107851,137.70283 C199.609209,137.70283 194.112141,136.93451 188.613499,135.593126 L183.184141,174.185304 L146.546998,179 L166.155987,44.7044285 L166.157562,44.7060159 Z M202.453008,109.711556 C216.672005,109.711556 221.032182,94.5674079 221.032182,81.7234562 C221.032182,72.5210847 216.481474,70.6034609 210.415961,70.6034609 C207.572162,70.6034609 202.453008,72.1385124 197.524386,75.2054404 L192.595763,108.754331 C195.628519,109.328983 198.092831,109.713143 202.453008,109.713143 L202.453008,109.711556 Z" id="Shape" fill="#FFFFFF"></path>
                <path d="M120.65116,12.7675702 L120.675141,12.6933758 L137.788206,10.4770156 C139.221686,10.2896578 140.230518,8.99117334 140.042449,7.57554134 C139.880576,6.34145852 138.851424,5.39625137 137.593158,5.32603051 L91.1221702,11.3452479 C90.4336992,11.4338493 89.7377999,11.2485345 89.1878093,10.8301364 C88.6378187,10.4117384 88.2788699,9.79459153 88.190055,9.11468032 C88.0010275,7.69847542 89.0101088,6.3989634 90.4442984,6.21162741 L134.814523,0.465508533 C135.47321,0.343956019 136.144687,0.253975586 136.828953,0.201881651 L136.892904,0.197145839 L137.111933,0.168730965 C137.251308,0.150786877 137.391917,0.143924198 137.532405,0.148209112 L138.84818,0.0471784503 C143.253321,-0.291091217 147.601625,1.20084658 150.845122,4.16342424 C154.088618,7.12600191 155.933111,11.2905049 155.934066,15.6532584 C155.934066,25.2038132 148.491865,33.1489275 138.84818,33.8908715 L136.828953,34.0471533 C129.33879,34.6233437 122.659195,29.9633045 120.483291,23.1831999 L127.521007,22.2707668 C128.954487,22.0834089 129.963319,20.7849245 129.77525,19.3692925 C129.614464,18.1410634 128.593788,17.1981437 127.341946,17.1213602 L103.168783,20.2517321 C102.480566,20.339882 101.785081,20.1543572 101.235448,19.7360031 C100.685815,19.317649 100.327096,18.7007649 100.238267,18.0211646 C100.050152,16.606073 101.058078,15.3078345 102.490911,15.1196903 L120.65116,12.7675702 Z M80.53522,7.49503253 C81.2234374,7.40688271 81.9189219,7.59240752 82.4685549,8.01076161 C83.0181879,8.42911571 83.3769071,9.04599983 83.4657364,9.7256001 C83.6538054,11.1412321 82.6449734,12.4397165 81.211493,12.6270744 L70.9970526,13.9499446 C70.3088352,14.0380945 69.6133507,13.8525696 69.0637177,13.4342156 C68.5140847,13.0158615 68.1553655,12.3989773 68.0665362,11.7193771 C67.878422,10.3042855 68.8863475,9.00604699 70.3191808,8.81790275 L80.53522,7.49503253 L80.53522,7.49503253 Z" id="Shape" fill="#FFA05D"></path>
            </g>
        </g>
    </g>
</svg>